<svg xmlns="http://www.w3.org/2000/svg" xmlns:xlink="http://www.w3.org/1999/xlink" width="500" zoomAndPan="magnify" viewBox="0 0 375 374.999991" height="500" preserveAspectRatio="xMidYMid meet" version="1.2"><defs><clipPath id="3a20346326"><path d="M 96.671875 70.425781 L 278.171875 70.425781 L 278.171875 278.925781 L 96.671875 278.925781 Z M 96.671875 70.425781 "/></clipPath><clipPath id="0d8f7e36a8"><rect x="0" width="83" y="0" height="91"/></clipPath></defs><g id="093d75256d"><g clip-rule="nonzero" clip-path="url(#3a20346326)"><path style=" stroke:none;fill-rule:nonzero;fill:#00ffc9;fill-opacity:1;" d="M 102.964844 125.71875 L 187.5 76.929688 L 272.03125 125.71875 L 272.03125 223.296875 L 187.5 272.128906 L 102.964844 223.296875 L 102.964844 125.71875 M 96.671875 122.070312 L 96.671875 226.949219 L 187.5 279.386719 L 278.324219 226.949219 L 278.324219 122.070312 L 187.5 69.628906 Z M 96.671875 122.070312 "/></g><g transform="matrix(1,0,0,1,146,132)"><g clip-path="url(#0d8f7e36a8)"><g style="fill:#03ffca;fill-opacity:1;"><g transform="translate(0.499456, 73.619098)"><path style="stroke:none" d="M 42.203125 -14.171875 C 42.503906 -14.171875 42.804688 -14.113281 43.109375 -14 C 43.410156 -13.882812 43.695312 -13.691406 43.96875 -13.421875 L 49.015625 -8.125 C 46.804688 -5.238281 44.039062 -3.0625 40.71875 -1.59375 C 37.40625 -0.132812 33.476562 0.59375 28.9375 0.59375 C 24.78125 0.59375 21.050781 -0.109375 17.75 -1.515625 C 14.457031 -2.929688 11.664062 -4.882812 9.375 -7.375 C 7.082031 -9.875 5.320312 -12.832031 4.09375 -16.25 C 2.863281 -19.675781 2.25 -23.394531 2.25 -27.40625 C 2.25 -31.488281 2.910156 -35.238281 4.234375 -38.65625 C 5.566406 -42.070312 7.4375 -45.019531 9.84375 -47.5 C 12.25 -49.988281 15.128906 -51.921875 18.484375 -53.296875 C 21.847656 -54.671875 25.546875 -55.359375 29.578125 -55.359375 C 31.628906 -55.359375 33.5625 -55.175781 35.375 -54.8125 C 37.195312 -54.457031 38.894531 -53.957031 40.46875 -53.3125 C 42.050781 -52.675781 43.503906 -51.90625 44.828125 -51 C 46.160156 -50.101562 47.34375 -49.128906 48.375 -48.078125 L 44.09375 -42.328125 C 43.8125 -41.972656 43.484375 -41.648438 43.109375 -41.359375 C 42.734375 -41.078125 42.207031 -40.9375 41.53125 -40.9375 C 41.082031 -40.9375 40.65625 -41.035156 40.25 -41.234375 C 39.851562 -41.429688 39.425781 -41.671875 38.96875 -41.953125 C 38.519531 -42.242188 38.023438 -42.554688 37.484375 -42.890625 C 36.953125 -43.234375 36.316406 -43.550781 35.578125 -43.84375 C 34.835938 -44.132812 33.972656 -44.378906 32.984375 -44.578125 C 31.992188 -44.773438 30.832031 -44.875 29.5 -44.875 C 27.394531 -44.875 25.472656 -44.484375 23.734375 -43.703125 C 21.992188 -42.929688 20.488281 -41.800781 19.21875 -40.3125 C 17.957031 -38.820312 16.984375 -36.992188 16.296875 -34.828125 C 15.609375 -32.660156 15.265625 -30.1875 15.265625 -27.40625 C 15.265625 -24.59375 15.644531 -22.097656 16.40625 -19.921875 C 17.164062 -17.742188 18.203125 -15.90625 19.515625 -14.40625 C 20.835938 -12.914062 22.375 -11.78125 24.125 -11 C 25.882812 -10.226562 27.765625 -9.84375 29.765625 -9.84375 C 30.921875 -9.84375 31.972656 -9.898438 32.921875 -10.015625 C 33.878906 -10.128906 34.769531 -10.316406 35.59375 -10.578125 C 36.414062 -10.835938 37.191406 -11.1875 37.921875 -11.625 C 38.648438 -12.070312 39.390625 -12.632812 40.140625 -13.3125 C 40.441406 -13.5625 40.765625 -13.765625 41.109375 -13.921875 C 41.460938 -14.085938 41.828125 -14.171875 42.203125 -14.171875 Z M 42.203125 -14.171875 "/></g></g><g style="fill:#03ffca;fill-opacity:1;"><g transform="translate(49.762293, 73.619098)"><path style="stroke:none" d="M 27.96875 -19.84375 C 27.96875 -16.789062 27.582031 -14.007812 26.8125 -11.5 C 26.050781 -9 24.898438 -6.851562 23.359375 -5.0625 C 21.816406 -3.269531 19.878906 -1.878906 17.546875 -0.890625 C 15.222656 0.0976562 12.484375 0.59375 9.328125 0.59375 C 7.890625 0.59375 6.472656 0.519531 5.078125 0.375 C 3.691406 0.226562 2.25 -0.0195312 0.75 -0.375 L 1.421875 -7.78125 C 1.503906 -8.425781 1.769531 -8.945312 2.21875 -9.34375 C 2.664062 -9.75 3.304688 -9.953125 4.140625 -9.953125 C 4.554688 -9.953125 5.078125 -9.882812 5.703125 -9.75 C 6.335938 -9.613281 7.09375 -9.546875 7.96875 -9.546875 C 9.195312 -9.546875 10.265625 -9.710938 11.171875 -10.046875 C 12.085938 -10.390625 12.847656 -10.953125 13.453125 -11.734375 C 14.054688 -12.523438 14.507812 -13.5625 14.8125 -14.84375 C 15.113281 -16.125 15.265625 -17.703125 15.265625 -19.578125 L 15.265625 -54.765625 L 27.96875 -54.765625 Z M 27.96875 -19.84375 "/></g></g></g></g></g></svg>